<svg width="51" height="51" viewBox="0 0 51 51" fill="none" xmlns="http://www.w3.org/2000/svg">
<path d="M8.5 8.5V42.5C8.5 43.6272 8.94777 44.7082 9.7448 45.5052C10.5418 46.3022 11.6228 46.75 12.75 46.75H38.25C39.3772 46.75 40.4582 46.3022 41.2552 45.5052C42.0522 44.7082 42.5 43.6272 42.5 42.5V17.7268C42.4999 17.1606 42.3867 16.6001 42.1671 16.0783C41.9474 15.5564 41.6256 15.0838 41.2208 14.688L31.7858 5.46125C30.9918 4.6849 29.9255 4.25014 28.815 4.25H12.75C11.6228 4.25 10.5418 4.69777 9.7448 5.4948C8.94777 6.29183 8.5 7.37283 8.5 8.5V8.5Z" fill="white" stroke="black" stroke-width="2" stroke-linecap="round" stroke-linejoin="round"/>
<path d="M29.75 4.25V12.75C29.75 13.8772 30.1978 14.9582 30.9948 15.7552C31.7918 16.5522 32.8728 17 34 17H42.5" fill="white"/>
<path d="M29.75 4.25V12.75C29.75 13.8772 30.1978 14.9582 30.9948 15.7552C31.7918 16.5522 32.8728 17 34 17H42.5" stroke="black" stroke-width="2" stroke-linejoin="round"/>
<line x1="14.5" y1="12.5" x2="25.5" y2="12.5" stroke="black" stroke-linecap="round"/>
<line x1="14.5" y1="8.5" x2="25.5" y2="8.5" stroke="black" stroke-linecap="round"/>
<line x1="14.5" y1="16.5" x2="26.5" y2="16.5" stroke="black" stroke-linecap="round"/>
<line x1="14.5" y1="20.5" x2="35.5" y2="20.5" stroke="black" stroke-linecap="round"/>
<line x1="14.5" y1="24.5" x2="35.5" y2="24.5" stroke="black" stroke-linecap="round"/>
<line x1="14.5" y1="28.5" x2="35.5" y2="28.5" stroke="black" stroke-linecap="round"/>
<line x1="14.5" y1="32.5" x2="35.5" y2="32.5" stroke="black" stroke-linecap="round"/>
<line x1="14.5" y1="36.5" x2="35.5" y2="36.5" stroke="black" stroke-linecap="round"/>
<line x1="14.5" y1="40.5" x2="35.5" y2="40.5" stroke="black" stroke-linecap="round"/>
</svg>
